M48
; DRILL file {KiCad 9.0.2} date 2025-06-29T09:51:12+0800
; FORMAT={-:-/ absolute / metric / decimal}
; #@! TF.CreationDate,2025-06-29T09:51:12+08:00
; #@! TF.GenerationSoftware,Kicad,Pcbnew,9.0.2
; #@! TF.FileFunction,MixedPlating,1,2
FMAT,2
METRIC
; #@! TA.AperFunction,Plated,PTH,ViaDrill
T1C0.800
; #@! TA.AperFunction,Plated,PTH,ComponentDrill
T2C0.800
; #@! TA.AperFunction,Plated,PTH,ComponentDrill
T3C1.000
; #@! TA.AperFunction,Plated,PTH,ComponentDrill
T4C1.100
%
G90
G05
T1
X8.0Y7.0
X14.0Y51.0
X18.944Y32.944
X19.0Y13.0
X19.615Y36.0
X22.0Y17.0
X22.0Y29.34
X24.0Y10.0
X24.016Y42.993
X24.023Y51.023
X41.0Y61.0
X43.0Y8.0
X48.0Y11.0
X48.0Y61.0
X53.0Y5.0
X53.0Y17.0
T2
X42.0Y48.19
X42.0Y50.73
X42.0Y53.27
X42.0Y55.81
X42.332Y21.0
X42.332Y39.542
X44.872Y21.0
X44.872Y39.542
X49.62Y48.19
X49.62Y50.73
X49.62Y53.27
X49.62Y55.81
X53.0Y21.0
X53.0Y39.542
X55.5Y44.0
X55.54Y21.0
X55.54Y39.542
X59.372Y33.0
X60.5Y44.0
X60.872Y24.0
X63.372Y24.0
X64.372Y33.0
T3
X10.96Y18.0
X11.46Y29.05
X11.46Y31.59
X11.46Y34.13
X11.46Y36.67
X11.46Y43.46
X11.46Y46.0
X11.46Y48.54
X11.46Y51.08
X11.46Y53.62
X11.46Y56.16
X15.96Y18.0
X16.46Y29.13
X16.46Y31.67
X16.46Y34.21
X16.46Y36.75
X16.46Y39.29
X16.46Y41.83
X16.46Y44.37
X16.46Y46.91
X40.0Y5.46
X40.0Y8.0
X40.0Y10.54
X40.0Y13.08
X50.0Y5.46
X50.0Y8.0
X50.0Y10.54
X56.632Y54.0
X61.632Y54.0
T4
X58.92Y10.0
X64.0Y10.0
M30
